<svg width="52" height="41" viewBox="0 0 52 41" fill="none" xmlns="http://www.w3.org/2000/svg">
<g filter="url(#filter0_d_7_270)">
<path d="M10.171 24.632C10.171 25.0207 10.0793 25.3873 9.896 25.732C9.71267 26.0767 9.41933 26.359 9.016 26.579C8.61267 26.7917 8.09567 26.898 7.465 26.898H6.079V30H4.825V22.355H7.465C8.05167 22.355 8.54667 22.4577 8.95 22.663C9.36067 22.861 9.665 23.1323 9.863 23.477C10.0683 23.8217 10.171 24.2067 10.171 24.632ZM7.465 25.875C7.94167 25.875 8.29733 25.7687 8.532 25.556C8.76667 25.336 8.884 25.028 8.884 24.632C8.884 23.796 8.411 23.378 7.465 23.378H6.079V25.875H7.465ZM12.621 24.819C12.8043 24.511 13.0463 24.2727 13.347 24.104C13.655 23.928 14.018 23.84 14.436 23.84V25.138H14.117C13.6257 25.138 13.2517 25.2627 12.995 25.512C12.7457 25.7613 12.621 26.194 12.621 26.81V30H11.367V23.939H12.621V24.819ZM21.1437 26.821C21.1437 27.0483 21.129 27.2537 21.0997 27.437H16.4687C16.5053 27.921 16.685 28.3097 17.0077 28.603C17.3303 28.8963 17.7263 29.043 18.1957 29.043C18.8703 29.043 19.347 28.7607 19.6257 28.196H20.9787C20.7953 28.7533 20.4617 29.2117 19.9777 29.571C19.501 29.923 18.907 30.099 18.1957 30.099C17.6163 30.099 17.0957 29.9707 16.6337 29.714C16.179 29.45 15.8197 29.0833 15.5557 28.614C15.299 28.1373 15.1707 27.5873 15.1707 26.964C15.1707 26.3407 15.2953 25.7943 15.5447 25.325C15.8013 24.8483 16.157 24.4817 16.6117 24.225C17.0737 23.9683 17.6017 23.84 18.1957 23.84C18.7677 23.84 19.2773 23.9647 19.7247 24.214C20.172 24.4633 20.5203 24.8153 20.7697 25.27C21.019 25.7173 21.1437 26.2343 21.1437 26.821ZM19.8347 26.425C19.8273 25.963 19.6623 25.5927 19.3397 25.314C19.017 25.0353 18.6173 24.896 18.1407 24.896C17.708 24.896 17.3377 25.0353 17.0297 25.314C16.7217 25.5853 16.5383 25.9557 16.4797 26.425H19.8347ZM23.6317 24.83C23.8444 24.5513 24.1341 24.3167 24.5007 24.126C24.8674 23.9353 25.2817 23.84 25.7437 23.84C26.2717 23.84 26.7521 23.972 27.1847 24.236C27.6247 24.4927 27.9694 24.8557 28.2187 25.325C28.4681 25.7943 28.5927 26.3333 28.5927 26.942C28.5927 27.5507 28.4681 28.097 28.2187 28.581C27.9694 29.0577 27.6247 29.4317 27.1847 29.703C26.7521 29.967 26.2717 30.099 25.7437 30.099C25.2817 30.099 24.8711 30.0073 24.5117 29.824C24.1524 29.6333 23.8591 29.3987 23.6317 29.12V32.882H22.3777V23.939H23.6317V24.83ZM27.3167 26.942C27.3167 26.524 27.2287 26.1647 27.0527 25.864C26.8841 25.556 26.6567 25.325 26.3707 25.171C26.0921 25.0097 25.7914 24.929 25.4687 24.929C25.1534 24.929 24.8527 25.0097 24.5667 25.171C24.2881 25.3323 24.0607 25.567 23.8847 25.875C23.7161 26.183 23.6317 26.546 23.6317 26.964C23.6317 27.382 23.7161 27.7487 23.8847 28.064C24.0607 28.372 24.2881 28.6067 24.5667 28.768C24.8527 28.9293 25.1534 29.01 25.4687 29.01C25.7914 29.01 26.0921 28.9293 26.3707 28.768C26.6567 28.5993 26.8841 28.3573 27.0527 28.042C27.2287 27.7267 27.3167 27.36 27.3167 26.942ZM29.4148 26.942C29.4148 26.3333 29.5395 25.7943 29.7888 25.325C30.0455 24.8557 30.3901 24.4927 30.8228 24.236C31.2628 23.972 31.7468 23.84 32.2748 23.84C32.7515 23.84 33.1658 23.9353 33.5178 24.126C33.8771 24.3093 34.1631 24.5403 34.3758 24.819V23.939H35.6408V30H34.3758V29.098C34.1631 29.384 33.8735 29.6223 33.5068 29.813C33.1401 30.0037 32.7221 30.099 32.2528 30.099C31.7321 30.099 31.2555 29.967 30.8228 29.703C30.3901 29.4317 30.0455 29.0577 29.7888 28.581C29.5395 28.097 29.4148 27.5507 29.4148 26.942ZM34.3758 26.964C34.3758 26.546 34.2878 26.183 34.1118 25.875C33.9431 25.567 33.7195 25.3323 33.4408 25.171C33.1621 25.0097 32.8615 24.929 32.5388 24.929C32.2161 24.929 31.9155 25.0097 31.6368 25.171C31.3581 25.325 31.1308 25.556 30.9548 25.864C30.7861 26.1647 30.7018 26.524 30.7018 26.942C30.7018 27.36 30.7861 27.7267 30.9548 28.042C31.1308 28.3573 31.3581 28.5993 31.6368 28.768C31.9228 28.9293 32.2235 29.01 32.5388 29.01C32.8615 29.01 33.1621 28.9293 33.4408 28.768C33.7195 28.6067 33.9431 28.372 34.1118 28.064C34.2878 27.7487 34.3758 27.382 34.3758 26.964ZM38.5419 24.819C38.7252 24.511 38.9672 24.2727 39.2679 24.104C39.5759 23.928 39.9389 23.84 40.3569 23.84V25.138H40.0379C39.5466 25.138 39.1726 25.2627 38.9159 25.512C38.6666 25.7613 38.5419 26.194 38.5419 26.81V30H37.2879V23.939H38.5419V24.819ZM47.0646 26.821C47.0646 27.0483 47.0499 27.2537 47.0206 27.437H42.3896C42.4262 27.921 42.6059 28.3097 42.9286 28.603C43.2512 28.8963 43.6472 29.043 44.1166 29.043C44.7912 29.043 45.2679 28.7607 45.5466 28.196H46.8996C46.7162 28.7533 46.3826 29.2117 45.8986 29.571C45.4219 29.923 44.8279 30.099 44.1166 30.099C43.5372 30.099 43.0166 29.9707 42.5546 29.714C42.0999 29.45 41.7406 29.0833 41.4766 28.614C41.2199 28.1373 41.0916 27.5873 41.0916 26.964C41.0916 26.3407 41.2162 25.7943 41.4656 25.325C41.7222 24.8483 42.0779 24.4817 42.5326 24.225C42.9946 23.9683 43.5226 23.84 44.1166 23.84C44.6886 23.84 45.1982 23.9647 45.6456 24.214C46.0929 24.4633 46.4412 24.8153 46.6906 25.27C46.9399 25.7173 47.0646 26.2343 47.0646 26.821ZM45.7556 26.425C45.7482 25.963 45.5832 25.5927 45.2606 25.314C44.9379 25.0353 44.5382 24.896 44.0616 24.896C43.6289 24.896 43.2586 25.0353 42.9506 25.314C42.6426 25.5853 42.4592 25.9557 42.4006 26.425H45.7556Z" fill="#154A4F"/>
<path d="M31.638 4.55115L33.0608 0H21.5781C20.8943 0 20.2386 0.289767 19.7551 0.805554C19.2716 1.32134 19 2.0209 19 2.75033V5.50066C19 5.63331 19.0494 5.76053 19.1373 5.85432C19.2252 5.94812 19.3445 6.00082 19.4688 6.00082H20.4076C20.5319 6.00082 20.6512 5.94812 20.7391 5.85432C20.827 5.76053 20.8764 5.63331 20.8764 5.50066V3.25049C20.8764 2.91901 20.9999 2.60112 21.2196 2.36673C21.4393 2.13234 21.7373 2.00066 22.048 2.00066H22.4389L23.2412 4.56848C22.5069 5.19026 21.913 5.98029 21.5037 6.88007C21.0944 7.77985 20.88 8.76635 20.8764 9.7665C20.8666 10.4536 20.9908 11.1353 21.2411 11.7685C21.4915 12.4017 21.8625 12.9724 22.3306 13.4444C22.4874 13.6203 22.6762 13.7604 22.8855 13.8559C23.0947 13.9514 23.32 14.0004 23.5476 14H31.3294C31.5561 14.0009 31.7806 13.9527 31.9893 13.8581C32.198 13.7636 32.3864 13.6248 32.5432 13.4502C33.0114 12.9778 33.3826 12.4069 33.6332 11.7737C33.8839 11.1404 34.0086 10.4585 33.9995 9.77111C33.998 8.76781 33.7849 7.77773 33.3762 6.87415C32.9674 5.97058 32.3733 5.17665 31.638 4.55115ZM32.0614 8.9995H22.8254C23.0272 7.79039 23.6631 6.71292 24.5979 5.9962H30.3365C31.2533 6.72228 31.8713 7.79842 32.0614 8.9995Z" fill="#FB7454"/>
</g>
<defs>
<filter id="filter0_d_7_270" x="0.825012" y="0" width="50.2396" height="40.882" filterUnits="userSpaceOnUse" color-interpolation-filters="sRGB">
<feFlood flood-opacity="0" result="BackgroundImageFix"/>
<feColorMatrix in="SourceAlpha" type="matrix" values="0 0 0 0 0 0 0 0 0 0 0 0 0 0 0 0 0 0 127 0" result="hardAlpha"/>
<feOffset dy="4"/>
<feGaussianBlur stdDeviation="2"/>
<feComposite in2="hardAlpha" operator="out"/>
<feColorMatrix type="matrix" values="0 0 0 0 0 0 0 0 0 0 0 0 0 0 0 0 0 0 0.25 0"/>
<feBlend mode="normal" in2="BackgroundImageFix" result="effect1_dropShadow_7_270"/>
<feBlend mode="normal" in="SourceGraphic" in2="effect1_dropShadow_7_270" result="shape"/>
</filter>
</defs>
</svg>
